<svg xmlns="http://www.w3.org/2000/svg" width="512" height="512" viewBox="0 0 512 512" version="1.1">
	<path d="M 344.262 20.825 C 342.772 21.762, 339.600 39.005, 340.716 40.104 C 341.147 40.529, 345.100 42.415, 349.500 44.295 C 388.671 61.037, 423.080 89.703, 445.243 124.058 C 461.612 149.431, 474.843 181.711, 481.002 211.297 C 491.650 262.448, 485.606 309.441, 462.070 358.500 C 458.376 366.200, 453.054 376.199, 450.244 380.720 C 434.877 405.444, 413.389 427.461, 388 444.495 C 378.376 450.951, 355.365 462.404, 343.719 466.532 C 339.440 468.049, 335.674 469.719, 335.350 470.243 C 334.604 471.450, 339.822 484.924, 341.925 487.223 C 343.407 488.843, 344.220 488.657, 355.501 484.115 C 386.824 471.506, 409.959 456.673, 432.876 434.504 C 474.209 394.520, 500.612 339.515, 506.079 282 C 507.526 266.781, 506.713 235.685, 504.497 221.500 C 495.640 164.810, 471.239 114.606, 434.510 77.504 C 412.688 55.460, 385.177 36.312, 360 25.644 C 347.332 20.276, 345.853 19.823, 344.262 20.825 M 161.485 23.442 C 125.344 35.759, 89.467 60.110, 64.002 89.606 C 47.838 108.329, 32.043 134.724, 22.616 158.765 C 15.429 177.092, 5.479 217.879, 7.662 220.062 C 8.765 221.165, 24.708 223.326, 26.545 222.621 C 27.231 222.358, 28.104 219.748, 28.485 216.821 C 29.672 207.687, 34.688 188.014, 39.007 175.544 C 55.322 128.450, 85.849 89.413, 126.948 63.086 C 136.483 56.979, 158.703 46.111, 167 43.497 C 175.445 40.837, 175.635 40.488, 173.629 31.359 C 172.049 24.165, 170.654 20.963, 169.128 21.026 C 168.782 21.040, 165.343 22.127, 161.485 23.442 M 241 54.589 C 239.625 54.834, 234.049 55.740, 228.609 56.603 C 193.807 62.120, 157.123 77.760, 129.500 98.857 C 119.475 106.514, 103.198 122.940, 95.422 133.247 C 64.249 174.568, 47.860 230.290, 52.995 277.500 C 59.261 335.107, 85.781 385.612, 127.057 418.546 C 150.545 437.286, 180.089 449.963, 204.274 451.680 C 213.042 452.302, 213.210 452.365, 220.816 457.825 C 231.752 465.676, 241.737 471.585, 248.332 474.109 L 254.028 476.288 260.596 473.497 C 269.167 469.854, 282.279 461.577, 293.430 452.768 C 302.196 445.844, 302.541 445.680, 312.225 443.814 C 325.729 441.211, 337.060 437.060, 353 428.878 C 370.834 419.724, 382.929 410.975, 397.073 397 C 422.624 371.754, 440.604 340.092, 449.500 304.677 C 454.251 285.762, 455.354 275.009, 454.731 253.687 C 454.117 232.701, 451.636 216.554, 446.326 199 C 431.482 149.919, 405.689 114.617, 365 87.694 C 343.121 73.217, 314.736 61.589, 289.972 56.960 C 278.990 54.907, 247.711 53.393, 241 54.589 M 242.500 80.165 C 213.702 83.415, 181.494 94.111, 158.282 108.132 C 92.598 147.807, 60.872 230.285, 81.493 307.760 C 91.802 346.490, 115.515 382.379, 146.410 406.009 C 155.089 412.647, 170.063 422, 172.011 422 C 174.156 422, 171.342 419.416, 159.601 410.604 C 128.901 387.561, 112.826 368.645, 98.517 338.725 C 74.248 287.980, 74.239 231.525, 98.491 181.500 C 112.361 152.891, 134.652 128.879, 163.449 111.528 C 183.531 99.427, 213.991 89.016, 238.182 85.984 C 252.642 84.171, 279.881 85.138, 293 87.929 C 322.675 94.243, 349.487 107.851, 373.682 128.877 C 401.155 152.752, 420.496 190.975, 426.510 233.280 C 428.234 245.402, 428.437 268.714, 426.915 279.659 C 423.058 307.385, 411.171 336.414, 394.435 358.976 C 381.355 376.610, 368.540 388.651, 347.014 403.535 C 331.583 414.204, 332.681 415.795, 349.220 406.731 C 382.079 388.722, 410.397 352.929, 424.019 312.186 C 431.418 290.056, 432.408 283.544, 432.411 257 C 432.414 235.316, 432.208 232.529, 429.740 220.942 C 421.583 182.636, 402.199 147.398, 377.180 125.394 C 360.568 110.784, 339.917 98.107, 319.562 90.024 C 297.467 81.249, 267.197 77.377, 242.500 80.165 M 257.121 98.968 C 253.547 99.848, 252.040 101.397, 252.015 104.215 C 251.991 106.993, 254.792 107.707, 268 108.286 C 301.953 109.775, 335.040 125.585, 361.164 152.803 C 380.766 173.226, 393.318 197.797, 400.203 229.227 C 402.131 238.025, 402.453 242.444, 402.452 260 C 402.450 279.062, 402.256 281.270, 399.688 291.482 C 396.185 305.415, 389.648 320.660, 382.402 331.798 C 374.912 343.312, 370.811 348.264, 357.314 362.093 C 351.091 368.469, 346 374.341, 346 375.143 C 346 377.309, 348.090 379, 350.770 379 C 354.430 379, 361.507 373.623, 373.058 362.064 C 408.479 326.621, 421.881 277.736, 410.956 223.836 C 407.321 205.900, 398.656 183.699, 389.749 169.500 C 375.659 147.037, 354.989 128.250, 329.836 115.046 C 315.475 107.507, 305.068 103.646, 292.302 101.119 C 281.086 98.899, 262.112 97.739, 257.121 98.968 M 165.183 128.750 C 110.890 161.695, 82.765 234.296, 98.538 300.782 C 101.062 311.422, 108.091 329.811, 112.717 337.879 C 119.416 349.561, 129.836 363.599, 138.386 372.460 C 147.002 381.390, 147.997 382.121, 151.116 381.823 C 157.269 381.235, 156.252 378.248, 145.985 366.751 C 126.250 344.650, 112.594 318.835, 106.934 292.931 C 95.232 239.369, 114.105 180.582, 153.400 148.197 C 158.026 144.384, 165.669 138.843, 170.386 135.882 C 178.742 130.637, 180.258 128.658, 177.800 126.200 C 175.671 124.071, 171.506 124.913, 165.183 128.750 M 240 139.488 C 221.921 143.556, 204.316 157.421, 196.160 174.012 C 190.580 185.365, 188.031 195.892, 187.308 210.569 L 186.713 222.639 183.751 223.950 C 179.535 225.816, 177.640 230.929, 178.268 238.748 L 178.770 245 159.385 245 L 140 245 140 247.839 C 140 249.915, 140.688 250.993, 142.559 251.845 C 147.302 254.006, 148.659 259.496, 152.998 294.061 C 157.606 330.771, 160.475 346.282, 165.628 362.347 C 170.292 376.889, 179.366 395.838, 187.695 408.434 C 200.065 427.140, 223.025 447.419, 244.500 458.606 L 253.500 463.295 261 459.512 C 277.334 451.274, 298.807 434.809, 309.403 422.397 C 326.013 402.939, 335.373 384.114, 342.913 355 C 348.023 335.265, 350.206 322.962, 354.531 289.500 C 356.451 274.650, 358.727 260.592, 359.589 258.261 C 360.452 255.930, 362.522 252.954, 364.190 251.649 C 366.518 249.826, 367.065 248.779, 366.544 247.138 C 365.886 245.067, 365.345 245, 349.183 245 L 332.500 245 332.500 237.206 C 332.500 228.353, 330.766 224.512, 326.025 222.859 L 323.197 221.873 323.169 212.187 C 323.090 184.806, 311.219 162.439, 289.218 148.220 C 276.023 139.691, 255.377 136.028, 240 139.488 M 239.972 150.816 C 220.440 157.282, 205.802 172.768, 200.568 192.500 C 199.688 195.820, 198.688 205.126, 198.330 213.336 C 197.595 230.175, 196.922 231.842, 190.438 232.891 C 186.520 233.524, 186.497 233.554, 185.967 238.814 C 185.675 241.722, 185.637 244.304, 185.884 244.551 C 186.131 244.798, 194.808 245, 205.167 245 L 224 245 224 240.071 C 224 234.086, 222.245 232.006, 217.179 231.985 C 210.176 231.956, 209 229.482, 209 214.776 C 209 196.661, 212.782 185.670, 222.702 174.955 C 239.536 156.773, 267.952 155.881, 284.625 173.011 C 296.049 184.748, 300 195.732, 300 215.756 C 300 229.926, 299.445 231.065, 291.833 232.518 L 286.500 233.536 285.967 238.819 C 285.675 241.724, 285.637 244.304, 285.884 244.551 C 286.131 244.798, 295.258 245, 306.167 245 L 326 245 326 239.700 C 326 233.463, 324.864 232, 320.023 232 C 318.055 232, 315.445 231.299, 314.223 230.443 C 312.217 229.039, 311.999 228.038, 311.992 220.193 C 311.980 207.279, 310.283 194.796, 307.553 187.545 C 301.429 171.274, 288.870 158.376, 272.816 151.868 C 265.239 148.796, 247.763 148.237, 239.972 150.816 M 244.500 172.580 C 238.348 174.766, 229.904 182.032, 226.085 188.424 C 221.724 195.725, 220.177 201.796, 219.916 212.630 L 219.707 221.305 223.010 222.402 C 228.583 224.255, 230.166 227.478, 230.105 236.845 L 230.052 245 254.554 245 L 279.056 245 278.526 238.750 C 277.778 229.924, 279.363 226.120, 284.865 223.544 L 289.230 221.500 288.702 210.500 C 287.970 195.217, 285.729 189.522, 277.091 180.987 C 272.438 176.389, 269.030 173.961, 265.500 172.732 C 259.559 170.662, 250.087 170.594, 244.500 172.580 M 241.929 284.309 C 227.245 288.456, 215.480 302.167, 212.756 318.307 C 211.873 323.536, 212.016 325.708, 213.674 332.259 C 215.622 339.961, 215.622 340.032, 213.680 341.759 C 208.746 346.149, 208.251 351.937, 212.087 360.384 C 213.581 363.674, 213.960 366.954, 213.978 376.727 C 213.999 388.438, 214.099 389.019, 216.345 390.490 C 218.359 391.810, 223.519 391.990, 252.987 391.763 L 287.285 391.500 289.177 388.965 C 290.923 386.626, 290.983 385.698, 289.953 376.960 C 288.920 368.208, 288.993 367.091, 290.918 362.208 C 293.515 355.619, 293.535 349.776, 290.980 344.146 C 289.096 339.994, 289.080 339.534, 290.623 334.225 C 294.595 320.561, 289.610 304.337, 278.241 293.928 C 270.379 286.731, 263.508 283.724, 254.020 283.330 C 249.877 283.158, 244.447 283.598, 241.929 284.309 M 243.500 297.207 C 232.823 300.939, 224 313.464, 224 324.888 C 224 334.286, 226.708 337.885, 232.772 336.548 C 235.455 335.956, 235.500 335.819, 235.500 328.223 C 235.500 318.865, 237.546 314.066, 243.319 309.884 C 250.254 304.860, 258.448 306.191, 264.746 313.363 C 268.605 317.759, 270.306 322.900, 270.414 330.500 L 270.500 336.500 273.987 336.500 C 276.872 336.500, 277.720 335.984, 278.906 333.509 C 284.367 322.116, 277.041 305.186, 263.793 298.584 C 258.160 295.777, 249.308 295.176, 243.500 297.207" stroke="none" fill="black" fill-rule="evenodd"/>
</svg>