<svg width="132" height="77" viewBox="0 0 132 77" fill="none" xmlns="http://www.w3.org/2000/svg">
<g style="mix-blend-mode:plus-darker">
<path fill-rule="evenodd" clip-rule="evenodd" d="M103.801 41.4786C100.057 43.715 95.6783 45 91 45C77.1929 45 66 33.8071 66 20C66 13.6874 68.3397 7.92126 72.1991 3.52142C64.8928 7.88523 60 15.8712 60 25C60 38.8071 71.1929 50 85 50C92.4945 50 99.2188 46.7022 103.801 41.4786Z" fill="#EED66D"/>
</g>
<g style="mix-blend-mode:plus-darker">
<path fill-rule="evenodd" clip-rule="evenodd" d="M72.1991 3.52142C75.9435 1.28505 80.3217 0 85 0C98.8071 0 110 11.1929 110 25C110 31.3126 107.66 37.0787 103.801 41.4786C100.057 43.715 95.6783 45 91 45C77.1929 45 66 33.8071 66 20C66 13.6874 68.3397 7.92126 72.1991 3.52142Z" fill="#F3E072"/>
</g>
<path d="M80 27C80 28.1046 79.1046 29 78 29C76.8954 29 76 28.1046 76 27C76 25.8954 76.8954 25 78 25C79.1046 25 80 25.8954 80 27Z" fill="#E2B700"/>
<path d="M99 15.5C99 16.3284 98.3284 17 97.5 17C96.6716 17 96 16.3284 96 15.5C96 14.6716 96.6716 14 97.5 14C98.3284 14 99 14.6716 99 15.5Z" fill="#E2B700"/>
<path d="M93 40.5C93 41.3284 92.3284 42 91.5 42C90.6716 42 90 41.3284 90 40.5C90 39.6716 90.6716 39 91.5 39C92.3284 39 93 39.6716 93 40.5Z" fill="#E2B700"/>
<path d="M89 34.5C89 35.3284 88.3284 36 87.5 36C86.6716 36 86 35.3284 86 34.5C86 33.6716 86.6716 33 87.5 33C88.3284 33 89 33.6716 89 34.5Z" fill="#E2B700"/>
<path d="M76 12.5C76 14.433 74.433 16 72.5 16C70.567 16 69 14.433 69 12.5C69 10.567 70.567 9 72.5 9C74.433 9 76 10.567 76 12.5Z" fill="#E2B700"/>
<circle cx="94.5" cy="25.5" r="4.5" fill="#E2B700"/>
<circle cx="86.5" cy="15.5" r="4.5" fill="#E2B700"/>
<path fill-rule="evenodd" clip-rule="evenodd" d="M61 27C61 27.045 60.9999 27.0899 60.9996 27.1348C63.7049 25.7692 66.7626 25 70 25C77.6741 25 84.3388 29.3222 87.6924 35.6651C89.694 31.43 94.0048 28.5 99 28.5C104.517 28.5 109.198 32.0736 110.857 37.0321C111.235 37.0108 111.616 37 112 37C123.046 37 132 45.9543 132 57C132 67.7104 123.581 76.4544 113 76.9754V77H112H25H24V76.9804C10.6565 76.4555 0 65.4722 0 52C0 39.5535 9.09556 29.2314 21.0025 27.3179C21.0008 27.2121 21 27.1062 21 27C21 15.9543 29.9543 7 41 7C52.0457 7 61 15.9543 61 27Z" fill="#EFEFEF" fill-opacity="0.7"/>
</svg>
