<svg width="33" height="41" viewBox="0 0 33 41" fill="none" xmlns="http://www.w3.org/2000/svg">
<path d="M15.8813 4.30164C15.2813 4.95697 14.8688 5.1418 13.2188 5.47787C11.8313 5.74672 9.84376 5.78033 7.96876 5.52828L6.54376 5.32664L4.95001 6.04918C4.06876 6.45246 3.30001 6.85574 3.24376 6.95656C3.11251 7.14139 1.96876 20.5504 1.78126 24.1127L1.66876 26.2971L3.13126 27.3053C5.02501 28.616 11.4188 34.3123 12.9188 36.0262C13.575 36.7656 14.5313 37.9418 15.0563 38.6307L16.0313 39.9078L16.0875 33.6906C16.125 28.5152 16.0875 27.4566 15.8625 27.2549C15.5625 26.9861 14.25 26.902 13.4813 27.0869L12.9938 27.2213L12.7875 25.3225C12.6 23.6422 12.6188 23.4238 12.8813 23.2221C13.3875 22.8861 15.15 22.9701 15.8625 23.3734L16.5 23.7262L16.9875 23.3734C17.3625 23.1045 17.7563 23.0205 18.5438 23.0205C20.1938 23.0205 20.2688 23.1045 20.0813 25.2385C20.0063 26.2467 19.8938 27.0869 19.8563 27.1373C19.8 27.1709 19.4813 27.1373 19.125 27.0533C18.3938 26.8684 17.1563 27.0029 16.875 27.3053C16.7438 27.4398 16.7063 29.6578 16.725 33.7914L16.7813 40.0758L17.4375 39.2525C20.4375 35.4885 25.0125 31.1701 30.7313 26.6668C31.4063 26.1459 31.5188 25.9611 31.425 25.6082C31.35 25.3729 31.2188 24.0623 31.125 22.718C31.0125 21.357 30.8625 19.2229 30.75 17.9795C30.6563 16.7361 30.4875 14.6189 30.375 13.2746C30.2625 11.9303 30.1125 9.99795 30.0375 8.98975C29.9438 7.96475 29.8313 7.05738 29.7563 6.95656C29.7 6.85574 28.9125 6.45246 28.0313 6.04918L26.4375 5.32664L25.1438 5.52828C22.7438 5.88115 19.875 5.69631 18.15 5.07459C17.8875 4.97377 17.4188 4.6209 17.1188 4.30164C16.8375 3.96557 16.5563 3.69672 16.5 3.69672C16.4438 3.69672 16.1625 3.96557 15.8813 4.30164ZM16.6875 16.568C16.6875 18.8533 16.6313 19.5086 16.4625 19.4582C16.275 19.391 16.2 18.6684 16.1625 16.7193C16.1063 13.9971 16.1625 13.6107 16.5 13.6107C16.6125 13.6107 16.6875 14.6525 16.6875 16.568ZM12.9 17.9123C14.1 19.727 14.2875 20.2311 13.7625 20.1303C13.3688 20.0631 11.175 16.7025 11.325 16.3832C11.3813 16.2488 11.4938 16.1311 11.5688 16.1311C11.6438 16.1311 12.2438 16.9209 12.9 17.9123ZM21.6563 16.2992C21.7125 16.3832 21.5438 16.8201 21.2625 17.257C20.9813 17.7107 20.5875 18.3324 20.3813 18.6684C19.7438 19.727 19.1813 20.2648 18.9375 20.0631C18.7313 19.8783 19.1813 19.0381 20.6625 16.9209C21.225 16.1311 21.45 15.9967 21.6563 16.2992ZM18.8813 17.0385C18.5813 18.1811 18.15 19.4246 17.9813 19.559C17.8688 19.6598 17.7375 19.6598 17.6063 19.5422C17.3813 19.3406 18.0563 16.8033 18.4125 16.6184C18.75 16.4168 18.975 16.6352 18.8813 17.0385ZM14.7 16.8369C14.7375 16.9545 14.85 17.3242 14.9625 17.6434C15.075 17.9627 15.225 18.5508 15.3 18.9373C15.3938 19.5254 15.375 19.6598 15.1313 19.6598C14.8125 19.6598 14.3625 18.5508 14.1188 17.257C14.0438 16.7529 14.0625 16.6352 14.325 16.6352C14.4938 16.6352 14.6625 16.7361 14.7 16.8369ZM11.8313 19.4414C12.9188 20.3656 13.125 20.7016 12.75 20.9201C12.4875 21.0713 10.3125 19.1557 10.3125 18.7693C10.3125 18.282 10.6688 18.4332 11.8313 19.4414ZM22.6125 18.6684C22.6688 18.7693 22.275 19.2566 21.7313 19.7775C20.5125 20.8865 20.1375 21.0881 19.9875 20.752C19.9313 20.6008 20.325 20.1135 21 19.4918C22.1438 18.4668 22.3875 18.3492 22.6125 18.6684ZM10.2 20.3656C12.0563 21.357 12.4313 21.693 11.7938 21.8107C11.4 21.8779 7.68751 19.8615 7.68751 19.5758C7.68751 19.1389 8.17501 19.2902 10.2 20.3656ZM25.2 19.4582C25.3688 19.6934 25.05 19.9287 23.2125 20.8865C21.3563 21.8611 20.8125 22.0291 20.8125 21.609C20.8125 21.3906 21.1688 21.1553 22.875 20.2816C23.2313 20.0967 23.7938 19.8111 24.0938 19.643C24.7125 19.307 25.05 19.2566 25.2 19.4582ZM10.575 22.3316C11.6063 22.634 11.9438 23.0205 11.175 23.0205C10.3313 23.0205 8.06251 22.4156 8.06251 22.1971C8.06251 21.777 8.83126 21.8275 10.575 22.3316ZM24.7125 22.1299C24.6188 22.6172 21.375 23.3229 21.375 22.8693C21.375 22.6172 21.7313 22.466 22.9688 22.1635C24.4875 21.777 24.7875 21.777 24.7125 22.1299ZM11.3438 24.0287C11.3438 24.2303 10.9125 24.2807 8.86876 24.3311C6.86251 24.3648 6.37501 24.3311 6.37501 24.1463C6.37501 23.7262 6.61876 23.6758 8.98126 23.7262C10.9313 23.7766 11.3438 23.827 11.3438 24.0287ZM26.4938 23.9279C26.55 24.0623 26.55 24.2135 26.4938 24.2639C26.4188 24.3143 25.2938 24.3648 23.9625 24.3648C21.6938 24.3648 21.5625 24.3479 21.5625 24.0287C21.5625 23.7094 21.6938 23.6926 23.9813 23.6926C25.875 23.6926 26.4188 23.743 26.4938 23.9279Z" fill="#9E3236"/>
</svg>
